<svg xmlns="http://www.w3.org/2000/svg" xmlns:xlink="http://www.w3.org/1999/xlink" width="347" height="344" viewBox="0 0 347 344">
  <defs>
    <linearGradient id="linear-gradient" x1="0.085" y1="-0.107" x2="0.714" y2="0.836" gradientUnits="objectBoundingBox">
      <stop offset="0" stop-color="#6e6ef0"/>
      <stop offset="1" stop-color="#81eef4"/>
    </linearGradient>
    <linearGradient id="linear-gradient-2" x1="0.5" y1="1.679" x2="0.611" y2="0.371" gradientUnits="objectBoundingBox">
      <stop offset="0" stop-color="#fff"/>
      <stop offset="1" stop-color="gray"/>
    </linearGradient>
  </defs>
  <g id="cryptoDesign" transform="translate(-2753 -1052)">
    <g id="Group_5" data-name="Group 5" transform="translate(-789 735)">
      <g id="Rectangle_2" data-name="Rectangle 2" transform="translate(3574 405)" fill="none" stroke="#fff" stroke-width="0.5" stroke-dasharray="2 2">
        <rect width="270" height="120" stroke="none"/>
        <rect x="0.25" y="0.25" width="269.5" height="119.5" fill="none"/>
      </g>
      <rect id="Rectangle_1" data-name="Rectangle 1" width="157" height="141" rx="16" transform="translate(3630 317)" fill="url(#linear-gradient)"/>
      <path id="Rectangle_9" data-name="Rectangle 9" d="M0,0H157a0,0,0,0,1,0,0V32a16,16,0,0,1-16,16H16A16,16,0,0,1,0,32V0A0,0,0,0,1,0,0Z" transform="translate(3630 410)" fill="url(#linear-gradient-2)"/>
      <rect id="Rectangle_3" data-name="Rectangle 3" width="347" height="180" rx="10" transform="translate(3542 481)" fill="#010410"/>
      <path id="Path_2" data-name="Path 2" d="M0,0H91V24H0Z" transform="translate(3574 525)" fill="#363c47" opacity="0.705"/>
      <rect id="Rectangle_5" data-name="Rectangle 5" width="91" height="24" transform="translate(3759 525)" fill="#363c47" opacity="0.7"/>
      <rect id="Rectangle_6" data-name="Rectangle 6" width="91" height="24" transform="translate(3759 571)" fill="#363c47" opacity="0.7"/>
      <rect id="Rectangle_7" data-name="Rectangle 7" width="91" height="24" transform="translate(3574 567)" fill="#363c47" opacity="0.7"/>
      <rect id="Rectangle_8" data-name="Rectangle 8" width="268" height="30" rx="6" transform="translate(3575 613)" fill="#8482fb"/>
      <text id="Buy_Now" data-name="Buy Now" transform="translate(3683 633)" fill="#fff" font-size="12" font-family="Poppins-Bold, Poppins" font-weight="700"><tspan x="0" y="0">Buy Now</tspan></text>
      <text id="Visa" transform="translate(3639 446)" fill="#fff" font-size="20" font-family="Times-Bold, Times" font-weight="700"><tspan x="0" y="0">Visa</tspan></text>
      <text id="Credit" transform="translate(3645 339)" fill="#fff" font-size="9" font-family="Times-Bold, Times" font-weight="700"><tspan x="0" y="0">Credit</tspan></text>
      <text id="_0.1210" data-name="0.1210" transform="translate(3639 543)" fill="#fff" font-size="8" font-family="Poppins-Bold, Poppins" font-weight="700"><tspan x="0" y="0">0.1210</tspan></text>
      <text id="_6000" data-name="6000" transform="translate(3639 581)" fill="#fff" font-size="8" font-family="Poppins-Bold, Poppins" font-weight="700"><tspan x="0" y="0">6000</tspan></text>
    </g>
    <text id="Get" transform="translate(2797 1275)" fill="#fff" font-size="8" font-family="Poppins-Bold, Poppins" font-weight="700"><tspan x="0" y="0">Get</tspan></text>
    <text id="Pay" transform="translate(2797 1314)" fill="#fff" font-size="8" font-family="Poppins-Bold, Poppins" font-weight="700"><tspan x="0" y="0">Pay</tspan></text>
    <text id="BTC" transform="translate(3018 1273)" fill="#e4e4e4" font-size="8" font-family="Poppins-Bold, Poppins" font-weight="700"><tspan x="0" y="0">BTC</tspan></text>
    <text id="USD" transform="translate(3017 1319)" fill="#fff" font-size="8" font-family="Poppins-Bold, Poppins" font-weight="700"><tspan x="0" y="0">USD</tspan></text>
    <g id="Group_1" data-name="Group 1" transform="translate(-374 804)">
      <line id="Line_1" data-name="Line 1" x2="4" y2="4" transform="translate(3423 465)" fill="none" stroke="#fff" stroke-linecap="round" stroke-width="1"/>
      <line id="Line_2" data-name="Line 2" y1="4" x2="4" transform="translate(3427 465)" fill="none" stroke="#fff" stroke-linecap="round" stroke-width="1"/>
    </g>
    <g id="Group_2" data-name="Group 2" transform="translate(-375 850)">
      <line id="Line_1-2" data-name="Line 1" x2="4" y2="4" transform="translate(3423 465)" fill="none" stroke="#fff" stroke-linecap="round" stroke-width="1"/>
      <line id="Line_2-2" data-name="Line 2" y1="4" x2="4" transform="translate(3427 465)" fill="none" stroke="#fff" stroke-linecap="round" stroke-width="1"/>
    </g>
    <g id="Group_3" data-name="Group 3" transform="translate(-238.5 635.938)">
      <circle id="Ellipse_5" data-name="Ellipse 5" cx="6" cy="6" r="6" transform="translate(3224.383 628.063)" fill="#fff"/>
      <path id="Icon_awesome-bitcoin" data-name="Icon awesome-bitcoin" d="M12.561,6.562a6,6,0,1,1-6-6A6,6,0,0,1,12.561,6.562ZM9.134,5.707c.119-.8-.488-1.227-1.32-1.514l.27-1.081-.658-.164L7.164,4c-.173-.043-.351-.084-.527-.124L6.9,2.817l-.658-.164-.27,1.081c-.143-.033-.284-.065-.42-.1v0l-.908-.227-.175.7s.488.112.478.119a.35.35,0,0,1,.307.383L4.948,5.842a.546.546,0,0,1,.068.022l-.07-.017-.43,1.726a.24.24,0,0,1-.3.156c.007.01-.478-.119-.478-.119l-.327.753.857.214c.159.04.316.082.469.121L4.463,9.791l.658.164.27-1.082q.262.071.525.136l-.269,1.077.658.164.272-1.092C7.7,9.371,8.543,9.285,8.9,8.27a1.155,1.155,0,0,0-.6-1.6,1.05,1.05,0,0,0,.841-.966ZM7.63,7.816c-.2.817-1.58.376-2.026.265l.361-1.449c.446.111,1.877.332,1.665,1.184Zm.2-2.121c-.186.744-1.331.366-1.7.273l.328-1.314C6.83,4.747,8.027,4.92,7.834,5.7Z" transform="translate(3223.822 627.5)" fill="#e8942e"/>
    </g>
    <g id="Group_4" data-name="Group 4" transform="translate(-348 681)">
      <circle id="Ellipse_6" data-name="Ellipse 6" cx="6" cy="6" r="6" transform="translate(3334 631)" fill="#fff"/>
      <path id="Icon_awesome-ethereum" data-name="Icon awesome-ethereum" d="M4.25,3.165,2.407,4.291.563,3.165,2.407,0ZM2.407,4.652.563,3.526,2.407,6.213,4.251,3.526,2.407,4.652Z" transform="translate(3337.593 633.894)"/>
    </g>
    <g id="Group_7" data-name="Group 7" transform="translate(-188 700)">
      <rect id="Rectangle_11" data-name="Rectangle 11" width="23" height="12" rx="6" transform="translate(3154 421)" fill="#fff"/>
      <text id="Pay-2" data-name="Pay" transform="translate(3164 429)" fill="#797d80" font-size="6" font-family="Poppins-Bold, Poppins" font-weight="700"><tspan x="0" y="0">Pay</tspan></text>
      <g id="Group_6" data-name="Group 6" transform="translate(3157.25 424.194)">
        <path id="Path_3" data-name="Path 3" d="M133.244,107.335a2.4,2.4,0,0,0-.059-.574H130.55V107.8H132.1a1.371,1.371,0,0,1-.574.91l-.005.035.833.645.058.006a2.744,2.744,0,0,0,.836-2.064" transform="translate(-127.744 -104.466)" fill="#4285f4"/>
        <path id="Path_4" data-name="Path 4" d="M16.432,158.621a2.675,2.675,0,0,0,1.858-.68l-.885-.686a1.661,1.661,0,0,1-.973.281,1.689,1.689,0,0,1-1.6-1.166l-.033,0-.866.67-.011.031a2.8,2.8,0,0,0,2.507,1.546" transform="translate(-13.626 -153.009)" fill="#34a853"/>
        <path id="Path_5" data-name="Path 5" d="M1.21,73.14a1.728,1.728,0,0,1-.094-.555,1.815,1.815,0,0,1,.09-.555l0-.037-.877-.681L.3,71.326a2.8,2.8,0,0,0,0,2.519l.91-.7" transform="translate(0 -69.779)" fill="#fbbc05"/>
        <path id="Path_6" data-name="Path 6" d="M16.432,1.085a1.555,1.555,0,0,1,1.085.418L18.309.73A2.7,2.7,0,0,0,16.432,0a2.8,2.8,0,0,0-2.507,1.546l.907.7a1.7,1.7,0,0,1,1.6-1.166" transform="translate(-13.626)" fill="#eb4335"/>
      </g>
    </g>
    <g id="Icon_ionic-ios-wifi" data-name="Icon ionic-ios-wifi" transform="matrix(0.017, 1, -1, 0.017, 2871.062, 1101.049)">
      <path id="Path_7" data-name="Path 7" d="M10.929,6.75a12.811,12.811,0,0,0-8.584,3.422.309.309,0,0,0-.012.442l1.035,1.081a.318.318,0,0,0,.45.012,10.411,10.411,0,0,1,7.115-2.779,10.411,10.411,0,0,1,7.115,2.779.318.318,0,0,0,.45-.012l1.035-1.081a.309.309,0,0,0-.012-.442A12.846,12.846,0,0,0,10.929,6.75Z" fill="#fff"/>
      <path id="Path_8" data-name="Path 8" d="M7.883,17.419l1.108,1.1a.318.318,0,0,0,.434.012,6.028,6.028,0,0,1,7.975,0,.318.318,0,0,0,.434-.012l1.108-1.1a.31.31,0,0,0-.012-.453,8.264,8.264,0,0,0-11.045,0A.316.316,0,0,0,7.883,17.419Z" transform="translate(-2.488 -3.636)" fill="#fff"/>
      <path id="Path_9" data-name="Path 9" d="M16.056,22.8a3.158,3.158,0,0,0-2.3.988.31.31,0,0,0,.008.434l2.069,2.042a.318.318,0,0,0,.45,0l2.069-2.042a.31.31,0,0,0,.008-.434A3.173,3.173,0,0,0,16.056,22.8Z" transform="translate(-5.127 -7.202)" fill="#fff"/>
    </g>
    <path id="Icon_awesome-fingerprint" data-name="Icon awesome-fingerprint" d="M5.188,4.981a.486.486,0,0,0-.486.486,14.81,14.81,0,0,1-.561,4.285.486.486,0,1,0,.936.263,15.675,15.675,0,0,0,.6-4.547.486.486,0,0,0-.486-.486ZM5.17,3.326A2.026,2.026,0,0,0,3.081,5.374,13.288,13.288,0,0,1,2.81,8.261a.486.486,0,0,0,.952.2,14.259,14.259,0,0,0,.291-3.1,1.055,1.055,0,0,1,1.1-1.06A1.172,1.172,0,0,1,6.323,5.422a16.282,16.282,0,0,1-.215,2.907.486.486,0,1,0,.959.158A17.276,17.276,0,0,0,7.3,5.407,2.152,2.152,0,0,0,5.17,3.326Zm-2.242-.4A.487.487,0,0,0,2.245,3,3.513,3.513,0,0,0,1.46,5.264a11.762,11.762,0,0,1-.185,2.269.486.486,0,0,0,.957.173,12.739,12.739,0,0,0,.2-2.457A2.5,2.5,0,0,1,3,3.609a.486.486,0,0,0-.071-.684ZM5.146,1.663a3.62,3.62,0,0,0-.927.1.486.486,0,0,0,.224.946,2.907,2.907,0,0,1,.689-.075A2.835,2.835,0,0,1,7.944,5.361a17.844,17.844,0,0,1-.113,2.3.486.486,0,1,0,.966.111,18.816,18.816,0,0,0,.119-2.427,3.814,3.814,0,0,0-3.77-3.683Zm5.105,2.46a.486.486,0,1,0-.949.209A5.05,5.05,0,0,1,9.4,5.58a.486.486,0,0,0,.482.49h0a.486.486,0,0,0,.486-.482,6.018,6.018,0,0,0-.118-1.465ZM9.438,2.286A5.387,5.387,0,0,0,5.121,0,5.073,5.073,0,0,0,1.428,1.477,4.83,4.83,0,0,0,0,5L0,5.43a.486.486,0,0,0,.471.5H.487a.486.486,0,0,0,.485-.472l0-.479a3.864,3.864,0,0,1,1.14-2.815A4.1,4.1,0,0,1,5.106.973,4.412,4.412,0,0,1,8.643,2.844a.486.486,0,1,0,.8-.558Z" transform="translate(2972.314 1066)" fill="#fff"/>
  </g>
</svg>
